<svg width="25" height="31" viewBox="0 0 25 31" fill="none" xmlns="http://www.w3.org/2000/svg">
<path fill-rule="evenodd" clip-rule="evenodd" d="M2.14286 0H22.8571C24.0406 0 25 0.95939 25 2.14286V18.2143C25 25.1178 19.4036 30.7143 12.5 30.7143C5.59644 30.7143 0 25.1178 0 18.2143V2.14286C0 0.95939 0.95939 0 2.14286 0ZM14.0723 20.1071C13.7294 19.8714 13.558 19.475 13.558 18.9179V14.0643H16.483C17.0402 14.0643 17.4794 13.9036 17.8009 13.5821C18.1437 13.2393 18.3152 12.6929 18.3152 11.9429C18.3152 11.5143 18.2509 11.1286 18.1223 10.7857C18.0152 10.4214 17.8973 10.1214 17.7687 9.88572H13.558V7.82857C13.558 6.75715 13.2902 6.06072 12.7544 5.73929C12.2402 5.39643 11.5116 5.225 10.5687 5.225C10.0759 5.225 9.60444 5.26786 9.15444 5.35357C8.72587 5.41786 8.39372 5.48215 8.15801 5.54643V19.3036C8.15801 21.2321 8.66158 22.625 9.66872 23.4821C10.6973 24.3393 12.1544 24.7679 14.0402 24.7679C15.583 24.7679 16.6544 24.5107 17.2544 23.9964C17.8759 23.4821 18.1866 22.8179 18.1866 22.0036C18.1866 21.5964 18.1116 21.2536 17.9616 20.975C17.833 20.675 17.6723 20.4071 17.4794 20.1714C17.2223 20.2571 16.9223 20.3321 16.5794 20.3964C16.2366 20.4393 15.9044 20.4607 15.583 20.4607C14.9402 20.4607 14.4366 20.3429 14.0723 20.1071Z" fill="#00B147"/>
</svg>
