<svg width="162" height="151" viewBox="0 0 162 151" fill="none" xmlns="http://www.w3.org/2000/svg">
<rect x="71.1548" y="150.62" width="142.301" height="52.3627" rx="26.1814" transform="rotate(-120 71.1548 150.62)" fill="#FFE600"/>
<rect x="45.1218" y="124.231" width="142.301" height="52.3628" rx="26.1814" transform="rotate(-60 45.1218 124.231)" fill="#00C9BD" fill-opacity="0.75"/>
<rect x="151.73" y="62.7349" width="142.301" height="52.3627" rx="26.1814" transform="rotate(180 151.73 62.7349)" fill="#FF0000" fill-opacity="0.75"/>
<rect x="34.9015" y="87.8271" width="69.7939" height="52.3627" rx="26.1814" transform="rotate(-120 34.9015 87.8271)" fill="#FFE600" fill-opacity="0.75"/>
<path d="M80.9296 62.7349H68.4296C73.4296 51.2349 68.4296 41.2349 68.4296 41.2349L80.9296 62.7349Z" fill="#FFE600" fill-opacity="0.75"/>
<circle cx="33.4296" cy="36.7349" r="4" transform="rotate(-90 33.4296 36.7349)" fill="white"/>
<circle cx="125.43" cy="36.7349" r="4" transform="rotate(-90 125.43 36.7349)" fill="white"/>
<circle cx="79.4296" cy="116.735" r="4" transform="rotate(-90 79.4296 116.735)" fill="white"/>
</svg>
