<?xml version="1.0" encoding="UTF-8" standalone="no"?>
<!DOCTYPE svg PUBLIC "-//W3C//DTD SVG 20010904//EN"
              "http://www.w3.org/TR/2001/REC-SVG-20010904/DTD/svg10.dtd">

<svg xmlns="http://www.w3.org/2000/svg"
     width="1.38889in" height="1.38889in"
     viewBox="0 0 100 100">
  <path id="Unnamed"
        fill="white" stroke="none" stroke-width="1"
        d="M 2.00,21.00
           C 2.00,17.50 4.68,14.00 9.14,14.00
             26.95,14.00 73.17,14.00 90.92,14.00
             95.35,14.00 98.00,17.50 98.00,21.00
             98.00,24.50 95.35,28.00 90.92,28.00
             73.17,28.00 26.95,28.00 9.14,28.00
             4.68,28.00 2.00,24.50 2.00,21.00 Z
           M 2.00,49.00
           C 2.00,45.50 4.68,42.00 9.14,42.00
             26.95,42.00 73.17,42.00 90.92,42.00
             95.35,42.00 98.00,45.50 98.00,49.00
             98.00,52.50 95.35,56.00 90.92,56.00
             73.17,56.00 26.95,56.00 9.14,56.00
             4.68,56.00 2.00,52.50 2.00,49.00 Z
           M 2.00,77.00
           C 2.00,73.50 4.68,70.00 9.14,70.00
             26.95,70.00 73.17,70.00 90.92,70.00
             95.35,70.00 98.00,73.50 98.00,77.00
             98.00,80.50 95.35,84.00 90.92,84.00
             73.17,84.00 26.95,84.00 9.14,84.00
             4.68,84.00 2.00,80.50 2.00,77.00 Z" />
</svg>
