<svg width="200" height="201" viewBox="0 0 200 201" fill="none" xmlns="http://www.w3.org/2000/svg">
<path d="M141.981 2.41962C150.227 4.49038 156.453 7.26868 163.68 11.7026C168.948 14.9338 175.514 19.9715 179.637 24.5281C184.642 30.0564 189.057 36.2074 192.33 42.9243C204.269 67.4149 202.104 97.2923 187.826 120.283C182.406 129.009 173.736 137.981 165.095 143.538C161.826 145.641 157.415 147.41 153.774 148.868C145.085 152.344 133.434 155.547 124.057 155.66C113.642 155.778 104.014 153.858 94.34 150L85.8494 146.339C84.5711 145.703 83.0522 144.585 81.6041 145.222C80.5947 145.665 78.2503 148.165 77.3588 149.056L68.8683 157.547L39.1513 187.264C32.8683 193.547 26.3447 201 16.5098 200.429C12.4013 200.189 9.0711 198.566 6.13242 195.736C-0.650601 189.203 -1.65532 180.288 3.04751 172.17C5.54751 167.854 12.7173 161.339 16.5098 157.547L41.9815 132.075L50.9437 123.113C51.7315 122.325 54.8494 119.358 55.1937 118.594C55.7079 117.453 54.6607 116.089 54.1418 115.094L50.0947 106.132C46.0569 95.8442 44.6843 85.9857 44.8117 74.9998L45.2456 70.2828C47.3635 43.8206 63.4909 20.08 87.2645 8.19321C93.9343 4.8583 102.057 2.21207 109.434 1.07056L116.981 0.197922C124.467 -0.712455 134.665 0.579998 141.981 2.41962ZM100 28.4479C86.8871 34.4574 76.4532 46.4055 71.5522 59.9055C68.656 67.9008 68.3022 73.264 68.3966 81.6036C68.4437 85.5611 69.6607 90.58 70.9107 94.3394C76.84 112.122 91.2503 125.707 109.434 130.363C112.755 131.212 117.345 132.033 120.755 132.075C129.67 132.179 137.213 131.028 145.283 127.005C164.731 117.302 177.614 97.3017 177.359 75.4715C177.302 70.5989 175.958 65.4291 174.368 60.8489C166.17 37.2404 142.977 21.3866 117.925 23.7168C111.076 24.7074 106.43 25.4998 100 28.4479ZM140.566 38.5659C150.024 43.2215 157.92 52.3111 162.368 61.7923C165.085 67.5894 167.076 77.9432 158.963 80.2876C157.746 80.6413 156.448 80.6932 155.189 80.6413C145.736 80.2593 147.882 71.9951 141.373 63.6791C138.581 60.113 135.807 57.6319 131.604 55.8206C128.788 54.6036 124.444 54.0611 122.34 51.7876C119.467 48.646 119.137 41.0092 122.34 37.9196C124.033 36.2687 126.081 35.9432 128.302 35.5847C132.425 35.2498 136.906 36.7592 140.566 38.5659Z" fill="white"/>
</svg>
